<svg xmlns="http://www.w3.org/2000/svg" viewBox="0 0 300 600" width="300" height="600">
  <!-- Fundo do celular -->
  <rect x="0" y="0" width="300" height="600" rx="20" ry="20" fill="#1a2344"/>
  
  <!-- Barra de status -->
  <rect x="0" y="0" width="300" height="50" fill="#1a2344"/>
  <text x="30" y="30" font-family="Arial" font-size="16" fill="white">12:14</text>
  <text x="260" y="30" font-family="Arial" font-size="16" fill="white">97</text>
  <circle cx="280" cy="25" r="10" fill="#0a7d32"/>
  
  <!-- Ícones de status -->
  <path d="M240,25 L245,20 L250,25 L245,30 Z" fill="white"/>
  <circle cx="225" cy="25" r="5" fill="white"/>
  <rect x="210" y="20" width="3" height="10" fill="white"/>
  <rect x="215" y="18" width="3" height="14" fill="white"/>
  <rect x="220" y="15" width="3" height="20" fill="white"/>
  
  <!-- Cabeçalho -->
  <rect x="0" y="50" width="300" height="60" fill="#4051b5"/>
  <text x="90" y="85" font-family="Arial" font-size="18" font-weight="bold" fill="white">732 | LIVRE</text>
  <rect x="20" y="70" width="30" height="5" fill="white"/>
  <rect x="20" y="80" width="30" height="5" fill="white"/>
  <rect x="20" y="90" width="30" height="5" fill="white"/>
  <circle cx="270" cy="80" r="20" fill="#0a7d32"/>
  
  <!-- Abas -->
  <rect x="0" y="110" width="150" height="40" fill="#4051b5"/>
  <rect x="150" y="110" width="150" height="40" fill="#64b5f6"/>
  <text x="60" y="135" font-family="Arial" font-size="16" fill="white">MAPA</text>
  <text x="200" y="135" font-family="Arial" font-size="16" fill="white">ÁREAS/PAs</text>
  
  <!-- Tabela de áreas -->
  <rect x="20" y="160" width="260" height="400" fill="#f5f5f5"/>
  
  <!-- Cabeçalho da tabela -->
  <rect x="20" y="160" width="65" height="40" fill="#e0e0e0"/>
  <rect x="85" y="160" width="65" height="40" fill="#e0e0e0"/>
  <rect x="150" y="160" width="43" height="40" fill="#e0e0e0"/>
  <rect x="193" y="160" width="43" height="40" fill="#e0e0e0"/>
  <rect x="236" y="160" width="44" height="40" fill="#e0e0e0"/>
  
  <text x="35" y="185" font-family="Arial" font-size="12" fill="#333">Área</text>
  <text x="95" y="185" font-family="Arial" font-size="12" fill="#333">Veículos</text>
  <text x="160" y="185" font-family="Arial" font-size="12" fill="#333">15</text>
  <text x="205" y="185" font-family="Arial" font-size="12" fill="#333">30</text>
  <text x="250" y="185" font-family="Arial" font-size="12" fill="#333">45+</text>
  
  <!-- Linhas da tabela -->
  <!-- Linha 1 -->
  <rect x="20" y="200" width="65" height="40" fill="white"/>
  <rect x="85" y="200" width="65" height="40" fill="white"/>
  <rect x="150" y="200" width="43" height="40" fill="white"/>
  <rect x="193" y="200" width="43" height="40" fill="white"/>
  <rect x="236" y="200" width="44" height="40" fill="white"/>
  <text x="25" y="225" font-family="Arial" font-size="12" fill="#333">0 AERO SUP</text>
  <text x="115" y="225" font-family="Arial" font-size="12" fill="#333">4</text>
  
  <!-- Linha 2 -->
  <rect x="20" y="240" width="65" height="40" fill="white"/>
  <rect x="85" y="240" width="65" height="40" fill="white"/>
  <rect x="150" y="240" width="43" height="40" fill="white"/>
  <rect x="193" y="240" width="43" height="40" fill="white"/>
  <rect x="236" y="240" width="44" height="40" fill="white"/>
  <text x="25" y="265" font-family="Arial" font-size="12" fill="#333">0 DESLOSU</text>
  <text x="115" y="265" font-family="Arial" font-size="12" fill="#333">3</text>
  
  <!-- Linha 3 -->
  <rect x="20" y="280" width="65" height="40" fill="white"/>
  <rect x="85" y="280" width="65" height="40" fill="white"/>
  <rect x="150" y="280" width="43" height="40" fill="white"/>
  <rect x="193" y="280" width="43" height="40" fill="white"/>
  <rect x="236" y="280" width="44" height="40" fill="white"/>
  <text x="25" y="305" font-family="Arial" font-size="12" fill="#333">1 AERO INF</text>
  <text x="115" y="305" font-family="Arial" font-size="12" fill="#333">2</text>
  
  <!-- Linha 4 -->
  <rect x="20" y="320" width="65" height="40" fill="white"/>
  <rect x="85" y="320" width="65" height="40" fill="white"/>
  <rect x="150" y="320" width="43" height="40" fill="white"/>
  <rect x="193" y="320" width="43" height="40" fill="white"/>
  <rect x="236" y="320" width="44" height="40" fill="white"/>
  <text x="25" y="345" font-family="Arial" font-size="12" fill="#333">2 PA2</text>
  <text x="115" y="345" font-family="Arial" font-size="12" fill="#333">4</text>
  
  <!-- Linha 5 -->
  <rect x="20" y="360" width="65" height="40" fill="white"/>
  <rect x="85" y="360" width="65" height="40" fill="white"/>
  <rect x="150" y="360" width="43" height="40" fill="white"/>
  <rect x="193" y="360" width="43" height="40" fill="white"/>
  <rect x="236" y="360" width="44" height="40" fill="white"/>
  <text x="25" y="385" font-family="Arial" font-size="12" fill="#333">2 DESL PA2</text>
  <text x="115" y="385" font-family="Arial" font-size="12" fill="#333">7</text>
  
  <!-- Botões de ação -->
  <circle cx="50" cy="520" r="30" fill="#29b6f6"/>
  <circle cx="250" cy="520" r="30" fill="#29b6f6"/>
  
  <!-- Texto de atualização -->
  <text x="150" y="520" font-family="Arial" font-size="12" fill="#888" text-anchor="middle">Atualizando em 4...</text>
</svg>